<svg width="16" height="16" viewBox="0 0 16 16" fill="none" xmlns="http://www.w3.org/2000/svg">
<g id="bookmark">
<path id="Vector" d="M12 14.6667C11.883 14.6667 11.7681 14.6359 11.6667 14.5775L8.00004 12.4629L4.33337 14.5775C4.232 14.6359 4.11705 14.6666 4.00005 14.6666C3.88305 14.6665 3.76811 14.6357 3.66679 14.5772C3.56547 14.5187 3.48133 14.4345 3.4228 14.3332C3.36428 14.2319 3.33344 14.117 3.33337 14V3.33333C3.33395 2.80307 3.54485 2.2947 3.9198 1.91975C4.29475 1.54481 4.80312 1.33391 5.33337 1.33333H10.6667C11.197 1.33391 11.7053 1.54481 12.0803 1.91975C12.4552 2.2947 12.6661 2.80307 12.6667 3.33333V14C12.6666 14.1768 12.5963 14.3463 12.4713 14.4713C12.3463 14.5963 12.1768 14.6665 12 14.6667Z" fill="#FF8484"/>
</g>
</svg>
