<svg width="20" height="20" viewBox="0 0 20 20" fill="none" xmlns="http://www.w3.org/2000/svg">
<path d="M17.5 2H14.5V0.5C14.5 0.223877 14.2761 0 14 0C13.7239 0 13.5 0.223877 13.5 0.5V2H6.5V0.5C6.5 0.223877 6.27612 0 6 0C5.72388 0 5.5 0.223877 5.5 0.5V2H2.49951C1.11938 2.00146 0.000976519 3.11987 -0.000488281 4.5V17.5C0.000976519 18.8801 1.11938 19.9985 2.49951 20H17.5C18.8802 19.9987 19.9987 18.8802 20 17.5V4.5C19.9987 3.11981 18.8802 2.00128 17.5 2ZM19 17.5C18.9991 18.3281 18.3281 18.9991 17.5 19H2.49951C1.67145 18.9991 1.00043 18.3281 0.999512 17.5V9H19V17.5ZM19 8H0.999512V4.5C1.00043 3.67194 1.67145 3.00092 2.49951 3H5.5V4.5C5.5 4.50018 5.5 4.50037 5.5 4.50061C5.50018 4.77655 5.724 5.00018 6 5C6.00018 5 6.00037 5 6.00061 5C6.27655 4.99982 6.50018 4.776 6.5 4.5V3H13.5V4.5C13.5 4.50018 13.5 4.50037 13.5 4.50061C13.5002 4.77655 13.724 5.00018 14 5C14.0002 5 14.0004 5 14.0006 5C14.2766 4.99982 14.5002 4.776 14.5 4.5V3H17.5C18.3281 3.00092 18.9991 3.67194 19 4.5V8Z" fill="black"/>
</svg>
