<svg width="19" height="19" viewBox="0 0 19 19" fill="none" xmlns="http://www.w3.org/2000/svg">
<path d="M11.7303 7.66401L9.975 8.6771V4.75C9.975 4.48768 9.76232 4.275 9.5 4.275C9.23768 4.275 9.025 4.48768 9.025 4.75V9.5C9.02546 9.76214 9.23786 9.97454 9.5 9.975C9.58344 9.975 9.66537 9.95291 9.7375 9.91099L12.2053 8.48599C12.4323 8.35483 12.5099 8.0645 12.3788 7.8375C12.2476 7.6105 11.9573 7.53286 11.7303 7.66401ZM9.5 0C4.25331 0 0 4.25331 0 9.5C0 14.7467 4.25331 19 9.5 19C14.7441 18.9939 18.9939 14.7441 19 9.5C19 4.25331 14.7467 0 9.5 0ZM9.5 18.05C4.77795 18.05 0.95 14.2221 0.95 9.5C0.95 4.77795 4.77795 0.95 9.5 0.95C14.2199 0.95516 18.0448 4.78009 18.05 9.5C18.05 14.2221 14.2221 18.05 9.5 18.05Z" fill="black"/>
</svg>
