<svg width="99" height="57" viewBox="0 0 99 57" fill="none" xmlns="http://www.w3.org/2000/svg">
<path d="M33.6684 26.205L1 27.3617L38.1917 28.5185C38.1917 28.5185 44.5462 55.9916 45.7043 55.9984C46.8625 56.0052 46.5478 55.9984 47.0857 55.8211L54.7772 19.8428C54.7772 19.8428 59.6217 36.0412 61.3109 36.0374C63 36.0336 63.8391 36.0374 63.8391 36.0374L66.8394 29.9644L98 28.5185L62.8187 27.3617C61.9409 19.6172 54.9826 1.33309 54.9826 1.33309C54.3988 0.801524 52.6419 1.07307 52.0304 1.04375C49.9217 0.942633 46.7358 24.0842 46.2332 36.0374C46.0656 36.5194 45.3285 35.6904 43.7202 28.5185C41.7098 19.5536 41.2073 20.9995 38.1917 20.4212C35.7793 19.9585 34.171 24.0842 33.6684 26.205Z" fill="#7443FF" stroke="#7443FF"/>
</svg>
