<svg width="95" height="35" viewBox="0 0 95 35" fill="none" xmlns="http://www.w3.org/2000/svg">
<path d="M48.0547 4.86133C48.0547 5.04102 47.8652 5.13086 47.4863 5.13086H46.127V13H43.127V5.13086H42.248C41.9473 5.13086 41.7402 5.14453 41.627 5.17188C41.4785 5.20312 41.3711 5.21875 41.3047 5.21875C41.1055 5.21875 41.0059 5.14062 41.0059 4.98438C41.0059 4.80078 41.1992 4.70898 41.5859 4.70898H46.8125C47.082 4.70898 47.2812 4.69727 47.4102 4.67383C47.5664 4.64648 47.6836 4.63281 47.7617 4.63281C47.957 4.63281 48.0547 4.70898 48.0547 4.86133ZM50.7676 11.957C50.0527 11.957 49.5645 11.9512 49.3027 11.9395L49.1328 12.3438C49.082 12.457 49.0352 12.5762 48.9922 12.7012C48.9023 12.9434 48.7773 13.0645 48.6172 13.0645C48.543 13.0645 48.4824 13.041 48.4355 12.9941C48.3887 12.9473 48.3652 12.8984 48.3652 12.8477C48.3652 12.7617 48.4023 12.666 48.4766 12.5605C48.5938 12.3965 48.709 12.1816 48.8223 11.916C48.4863 11.8848 48.3184 11.7871 48.3184 11.623C48.3184 11.459 48.4141 11.377 48.6055 11.377C48.7227 11.377 48.8594 11.3965 49.0156 11.4355L51.9395 4.33398L55.9473 13H52.8945L52.4082 11.957H50.7676ZM49.4902 11.4824C49.8652 11.5137 50.2012 11.5293 50.498 11.5293H52.2148L50.75 8.37109L49.4902 11.4824ZM57.248 12.5781C57.1113 12.5 56.9922 12.418 56.8906 12.332C56.793 12.2461 56.7441 12.1543 56.7441 12.0566C56.7441 11.8691 56.8242 11.7754 56.9844 11.7754C57.0898 11.7754 57.207 11.834 57.3359 11.9512C57.4648 12.0684 57.6094 12.1719 57.7695 12.2617C57.9297 12.3477 58.1035 12.4219 58.291 12.4844C58.6777 12.6133 59.0352 12.6777 59.3633 12.6777C59.6914 12.6777 59.9434 12.6562 60.1191 12.6133C60.2988 12.5703 60.4492 12.5117 60.5703 12.4375C60.8281 12.2773 60.957 12.0723 60.957 11.8223C60.957 11.5918 60.8457 11.3594 60.623 11.125C60.4355 10.9258 60.1699 10.6875 59.8262 10.4102L58.8242 9.625C57.8203 8.85156 57.2285 8.14453 57.0488 7.50391C56.9863 7.28125 56.9551 7.0332 56.9551 6.75977C56.9551 6.48633 57.0156 6.2168 57.1367 5.95117C57.2617 5.68555 57.4453 5.45312 57.6875 5.25391C58.207 4.82031 58.9141 4.60352 59.8086 4.60352C60.2656 4.60352 60.6758 4.67188 61.0391 4.80859C61.4023 4.94141 61.6504 5.06055 61.7832 5.16602C61.916 5.27148 61.9824 5.36719 61.9824 5.45312C61.9824 5.63281 61.9082 5.72266 61.7598 5.72266C61.6738 5.72266 61.582 5.67969 61.4844 5.59375C61.3867 5.50781 61.2773 5.43359 61.1562 5.37109C61.0391 5.30469 60.9043 5.24609 60.752 5.19531C60.4238 5.08594 60.1016 5.03125 59.7852 5.03125C59.2031 5.03125 58.9121 5.22266 58.9121 5.60547C58.9121 5.76562 58.9648 5.91406 59.0703 6.05078C59.2578 6.28906 59.623 6.63086 60.166 7.07617C60.7129 7.51758 61.1504 7.9043 61.4785 8.23633C61.8105 8.56836 62.0625 8.86719 62.2344 9.13281C62.5078 9.55078 62.6445 9.98633 62.6445 10.4395C62.6445 10.8887 62.5645 11.2715 62.4043 11.5879C62.248 11.9004 62.0273 12.1699 61.7422 12.3965C61.1406 12.873 60.3945 13.1113 59.5039 13.1113C58.6133 13.1113 57.8613 12.9336 57.248 12.5781ZM64.2207 4.70898H67.209V7.13477L69.2949 5.55859C69.5879 5.33594 69.8008 5.1543 69.9336 5.01367C70.0664 4.87305 70.1484 4.78906 70.1797 4.76172C70.2148 4.73047 70.2461 4.70703 70.2734 4.69141C70.3203 4.66016 70.3789 4.64453 70.4492 4.64453C70.5234 4.64453 70.582 4.66602 70.625 4.70898C70.668 4.74805 70.6895 4.79297 70.6895 4.84375C70.6895 4.89062 70.6836 4.93164 70.6719 4.9668C70.6602 4.99805 70.6367 5.03516 70.6016 5.07812C70.5234 5.17188 70.375 5.30273 70.1562 5.4707L68.8438 6.4668L71.041 11.8398C71.084 11.9414 71.125 12.0312 71.1641 12.1094L71.2578 12.3203L71.3633 12.5195C71.3906 12.5742 71.4141 12.627 71.4336 12.6777C71.4531 12.7285 71.4609 12.7773 71.457 12.8242C71.4531 12.8711 71.4395 12.9141 71.416 12.9531C71.3613 13.0391 71.2949 13.082 71.2168 13.082C71.1074 13.082 71.0254 13.0508 70.9707 12.9883C70.9004 12.9023 70.8477 12.8066 70.8125 12.7012L70.707 12.373C70.6719 12.2637 70.625 12.1328 70.5664 11.9805L68.4395 6.77148L67.209 7.70312V13H64.2207V4.70898Z" fill="#7443FF"/>
<path d="M60.916 20.5684L61.4375 20.5918C62.1953 20.5918 62.8203 20.3418 63.3125 19.8418C63.8125 19.3379 64.0742 18.6855 64.0977 17.8848C64.1406 16.6504 63.5469 15.8164 62.3164 15.3828C61.8555 15.2188 61.2559 15.1367 60.5176 15.1367H60.0254V23H57.0371V14.709H59.2812C60.4922 14.709 61.2227 14.7266 61.4727 14.7617C61.7227 14.7969 61.9824 14.8418 62.252 14.8965C62.5254 14.9512 62.8184 15.0703 63.1309 15.2539C63.4473 15.4375 63.7148 15.6562 63.9336 15.9102C64.375 16.4258 64.5879 17.0312 64.5723 17.7266C64.5488 18.6133 64.2891 19.3516 63.793 19.9414C63.2891 20.5352 62.5938 20.9023 61.707 21.043C61.4492 21.0781 61.2461 21.0957 61.0977 21.0957C60.7461 21.0957 60.5703 21 60.5703 20.8086C60.5703 20.7383 60.6016 20.6816 60.6641 20.6387C60.7266 20.5918 60.8105 20.5684 60.916 20.5684ZM73.2383 14.9551L73.2031 15.6816V19.1855C73.2031 20.3418 72.8711 21.2812 72.207 22.0039C71.5273 22.7422 70.625 23.1113 69.5 23.1113C68.2969 23.1113 67.3594 22.7344 66.6875 21.9805C66.0625 21.2891 65.75 20.4023 65.75 19.3203V14.709H68.7441V22.6133C69.0449 22.6562 69.375 22.6777 69.7344 22.6777C70.0977 22.6777 70.4648 22.6055 70.8359 22.4609C71.2109 22.3164 71.5391 22.0898 71.8203 21.7812C72.4297 21.1172 72.7383 20.1465 72.7461 18.8691V15.6934C72.7461 15.5762 72.7363 15.4375 72.7168 15.2773C72.7012 15.1172 72.6934 15.0078 72.6934 14.9492C72.6934 14.7461 72.7891 14.6445 72.9805 14.6445C73.1523 14.6445 73.2383 14.748 73.2383 14.9551ZM80.1523 22.4668C80.3594 22.4668 80.4629 22.5547 80.4629 22.7305C80.4629 22.8008 80.4199 22.8633 80.334 22.918C80.252 22.9727 80.1035 23 79.8887 23H75.1309V14.709H78.1191V22.6133H79.2148C79.4609 22.6133 79.6719 22.5898 79.8477 22.543C80.0273 22.4922 80.1289 22.4668 80.1523 22.4668ZM81.5879 22.5781C81.4512 22.5 81.332 22.418 81.2305 22.332C81.1328 22.2461 81.084 22.1543 81.084 22.0566C81.084 21.8691 81.1641 21.7754 81.3242 21.7754C81.4297 21.7754 81.5469 21.834 81.6758 21.9512C81.8047 22.0684 81.9492 22.1719 82.1094 22.2617C82.2695 22.3477 82.4434 22.4219 82.6309 22.4844C83.0176 22.6133 83.375 22.6777 83.7031 22.6777C84.0312 22.6777 84.2832 22.6562 84.459 22.6133C84.6387 22.5703 84.7891 22.5117 84.9102 22.4375C85.168 22.2773 85.2969 22.0723 85.2969 21.8223C85.2969 21.5918 85.1855 21.3594 84.9629 21.125C84.7754 20.9258 84.5098 20.6875 84.166 20.4102L83.1641 19.625C82.1602 18.8516 81.5684 18.1445 81.3887 17.5039C81.3262 17.2812 81.2949 17.0332 81.2949 16.7598C81.2949 16.4863 81.3555 16.2168 81.4766 15.9512C81.6016 15.6855 81.7852 15.4531 82.0273 15.2539C82.5469 14.8203 83.2539 14.6035 84.1484 14.6035C84.6055 14.6035 85.0156 14.6719 85.3789 14.8086C85.7422 14.9414 85.9902 15.0605 86.123 15.166C86.2559 15.2715 86.3223 15.3672 86.3223 15.4531C86.3223 15.6328 86.248 15.7227 86.0996 15.7227C86.0137 15.7227 85.9219 15.6797 85.8242 15.5938C85.7266 15.5078 85.6172 15.4336 85.4961 15.3711C85.3789 15.3047 85.2441 15.2461 85.0918 15.1953C84.7637 15.0859 84.4414 15.0312 84.125 15.0312C83.543 15.0312 83.252 15.2227 83.252 15.6055C83.252 15.7656 83.3047 15.9141 83.4102 16.0508C83.5977 16.2891 83.9629 16.6309 84.5059 17.0762C85.0527 17.5176 85.4902 17.9043 85.8184 18.2363C86.1504 18.5684 86.4023 18.8672 86.5742 19.1328C86.8477 19.5508 86.9844 19.9863 86.9844 20.4395C86.9844 20.8887 86.9043 21.2715 86.7441 21.5879C86.5879 21.9004 86.3672 22.1699 86.082 22.3965C85.4805 22.873 84.7344 23.1113 83.8438 23.1113C82.9531 23.1113 82.2012 22.9336 81.5879 22.5781ZM93.6992 22.4961C93.8984 22.4961 93.998 22.5742 93.998 22.7305C93.998 22.8008 93.9551 22.8633 93.8691 22.918C93.7832 22.9727 93.6348 23 93.4238 23H88.4609V14.709C90 14.709 91.5391 14.709 93.0781 14.709L93.5586 14.6914C93.8516 14.6914 93.998 14.7773 93.998 14.9492C93.998 15.0156 93.9727 15.0781 93.9219 15.1367C93.875 15.1914 93.8203 15.2188 93.7578 15.2188C93.6562 15.2188 93.5488 15.207 93.4355 15.1836C93.2676 15.1484 93.0371 15.1309 92.7441 15.1309H91.4492V16.918H92.5156C92.5156 16.918 92.7559 16.9082 93.2363 16.8887C93.3223 16.8887 93.3945 16.9102 93.4531 16.9531C93.5156 16.9922 93.5469 17.0488 93.5469 17.123C93.5469 17.2871 93.4375 17.3691 93.2188 17.3691L92.9668 17.3633C92.8379 17.3516 92.7305 17.3457 92.6445 17.3457H91.4492V22.5723H92.7441C93.0332 22.5723 93.2383 22.5605 93.3594 22.5371C93.5039 22.5098 93.6172 22.4961 93.6992 22.4961Z" fill="#7443FF"/>
<path d="M21.2176 16.0395L0 16.7756L24.1554 17.5117C24.1554 17.5117 28.2826 34.9946 29.0348 34.999C29.787 35.0033 29.5826 34.999 29.932 34.8861L34.9275 11.9908C34.9275 11.9908 38.0739 22.2989 39.171 22.2965C40.2681 22.2941 40.813 22.2965 40.813 22.2965L42.7617 18.4319L63 17.5117L40.1503 16.7756C39.5802 11.8473 35.0609 0.211954 35.0609 0.211954C34.6817 -0.126313 33.5406 0.0464872 33.1435 0.0278282C31.7739 -0.0365157 29.7047 14.6899 29.3782 22.2965C29.2694 22.6033 28.7907 22.0757 27.7461 17.5117C26.4404 11.8068 26.114 12.727 24.1554 12.3589C22.5886 12.0645 21.544 14.69 21.2176 16.0395Z" fill="url(#paint0_linear_113_86)"/>
<defs>
<linearGradient id="paint0_linear_113_86" x1="45.5" y1="15" x2="16.5" y2="14.5" gradientUnits="userSpaceOnUse">
<stop stop-color="#7443FF"/>
<stop offset="1" stop-color="#F2EEFC"/>
</linearGradient>
</defs>
</svg>
