<svg width="24" height="24" viewBox="0 0 24 24" fill="none" xmlns="http://www.w3.org/2000/svg">
<g id="sign-right">
<path id="Vector" d="M5 6V11C5 11.2652 5.10536 11.5196 5.29289 11.7071C5.48043 11.8946 5.73478 12 6 12H9V20H7C6.73478 20 6.48043 20.1054 6.29289 20.2929C6.10536 20.4804 6 20.7348 6 21C6 21.2652 6.10536 21.5196 6.29289 21.7071C6.48043 21.8946 6.73478 22 7 22H13C13.2652 22 13.5196 21.8946 13.7071 21.7071C13.8946 21.5196 14 21.2652 14 21C14 20.7348 13.8946 20.4804 13.7071 20.2929C13.5196 20.1054 13.2652 20 13 20H11V12H16C16.1494 12.0005 16.297 11.9675 16.432 11.9035C16.567 11.8395 16.6859 11.746 16.78 11.63L18.78 9.13C18.922 8.95264 18.9994 8.73221 18.9994 8.505C18.9994 8.27779 18.922 8.05736 18.78 7.88L16.78 5.38C16.6869 5.26215 16.5684 5.16679 16.4334 5.101C16.2983 5.03521 16.1502 5.00069 16 5H11V3C11 2.73478 10.8946 2.48043 10.7071 2.29289C10.5196 2.10536 10.2652 2 10 2C9.73478 2 9.48043 2.10536 9.29289 2.29289C9.10536 2.48043 9 2.73478 9 3V5H6C5.73478 5 5.48043 5.10536 5.29289 5.29289C5.10536 5.48043 5 5.73478 5 6ZM7 7H15.52L16.72 8.5L15.52 10H7V7Z" fill="black" fill-opacity="0.5"/>
</g>
</svg>
