<svg width="24" height="24" viewBox="0 0 24 24" fill="none" xmlns="http://www.w3.org/2000/svg">
<path d="M7.2257 5.8005C6.94383 5.8005 6.66828 5.88408 6.43391 6.04069C6.19954 6.19729 6.01687 6.41987 5.909 6.68029C5.80113 6.94071 5.77291 7.22727 5.8279 7.50373C5.88289 7.78019 6.01863 8.03413 6.21794 8.23345C6.41726 8.43276 6.6712 8.5685 6.94766 8.62349C7.22412 8.67848 7.51068 8.65026 7.7711 8.54239C8.03152 8.43452 8.2541 8.25185 8.4107 8.01748C8.5673 7.78311 8.65089 7.50756 8.65089 7.22569C8.65089 6.8477 8.50073 6.4852 8.23346 6.21793C7.96619 5.95065 7.60368 5.8005 7.2257 5.8005ZM20.1664 10.2756L12.1759 2.27554C12.0871 2.18748 11.9818 2.11781 11.866 2.07053C11.7503 2.02324 11.6263 1.99928 11.5013 2H2.95014C2.69815 2 2.45648 2.1001 2.2783 2.27829C2.10012 2.45647 2.00002 2.69814 2.00002 2.95013V11.5012C1.99929 11.6263 2.02326 11.7502 2.07054 11.866C2.11783 11.9818 2.18749 12.0871 2.27555 12.1758L10.2756 20.1664C10.81 20.7002 11.5345 21 12.2899 21C13.0452 21 13.7697 20.7002 14.3041 20.1664L20.1664 14.3516C20.7002 13.8172 21 13.0927 21 12.3374C21 11.582 20.7002 10.8575 20.1664 10.3231V10.2756ZM18.8267 12.9549L12.955 18.8172C12.7769 18.9942 12.5361 19.0935 12.2851 19.0935C12.0341 19.0935 11.7933 18.9942 11.6153 18.8172L3.90026 11.1117V3.90025H11.1117L18.8267 11.6153C18.9148 11.704 18.9844 11.8093 19.0317 11.9251C19.079 12.0409 19.103 12.1648 19.1023 12.2899C19.1012 12.5391 19.0023 12.778 18.8267 12.9549Z" fill="black" fill-opacity="0.5"/>
</svg>
