<svg width="24" height="24" viewBox="0 0 24 24" fill="none" xmlns="http://www.w3.org/2000/svg">
<path d="M11.2867 11.4381C11.7724 11.0176 12.162 10.4976 12.429 9.91327C12.6961 9.32897 12.8343 8.69406 12.8343 8.05164C12.8343 6.84447 12.3547 5.68674 11.5011 4.83314C10.6475 3.97955 9.48979 3.5 8.28262 3.5C7.07545 3.5 5.91772 3.97955 5.06412 4.83314C4.21053 5.68674 3.73098 6.84447 3.73098 8.05164C3.73097 8.69406 3.86917 9.32897 4.13619 9.91327C4.40321 10.4976 4.79281 11.0176 5.27854 11.4381C4.00421 12.0151 2.92303 12.9469 2.16429 14.1222C1.40555 15.2974 1.00134 16.6663 1 18.0652C1 18.3067 1.09591 18.5382 1.26663 18.7089C1.43735 18.8797 1.66889 18.9756 1.91033 18.9756C2.15176 18.9756 2.38331 18.8797 2.55403 18.7089C2.72474 18.5382 2.82065 18.3067 2.82065 18.0652C2.82065 16.6166 3.39611 15.2274 4.42043 14.203C5.44474 13.1787 6.83401 12.6033 8.28262 12.6033C9.73122 12.6033 11.1205 13.1787 12.1448 14.203C13.1691 15.2274 13.7446 16.6166 13.7446 18.0652C13.7446 18.3067 13.8405 18.5382 14.0112 18.7089C14.1819 18.8797 14.4135 18.9756 14.6549 18.9756C14.8963 18.9756 15.1279 18.8797 15.2986 18.7089C15.4693 18.5382 15.5652 18.3067 15.5652 18.0652C15.5639 16.6663 15.1597 15.2974 14.4009 14.1222C13.6422 12.9469 12.561 12.0151 11.2867 11.4381ZM8.28262 10.7826C7.74248 10.7826 7.21447 10.6224 6.76536 10.3224C6.31626 10.0223 5.96622 9.59576 5.75952 9.09674C5.55282 8.59771 5.49873 8.04861 5.60411 7.51885C5.70949 6.98909 5.96959 6.50247 6.35152 6.12054C6.73346 5.73861 7.22007 5.47851 7.74983 5.37313C8.27959 5.26775 8.8287 5.32184 9.32772 5.52854C9.82674 5.73524 10.2533 6.08528 10.5533 6.53438C10.8534 6.98349 11.0136 7.5115 11.0136 8.05164C11.0136 8.77594 10.7259 9.47057 10.2137 9.98273C9.70155 10.4949 9.00692 10.7826 8.28262 10.7826ZM17.1492 11.0739C17.7318 10.4179 18.1123 9.60743 18.2451 8.74015C18.3778 7.87287 18.257 6.98571 17.8973 6.18546C17.5376 5.38522 16.9542 4.706 16.2175 4.22956C15.4807 3.75312 14.622 3.49977 13.7446 3.5C13.5031 3.5 13.2716 3.59591 13.1009 3.76663C12.9302 3.93735 12.8343 4.16889 12.8343 4.41033C12.8343 4.65176 12.9302 4.88331 13.1009 5.05403C13.2716 5.22474 13.5031 5.32065 13.7446 5.32065C14.4689 5.32065 15.1635 5.60838 15.6757 6.12054C16.1878 6.6327 16.4756 7.32733 16.4756 8.05164C16.4743 8.52978 16.3475 8.9992 16.1078 9.41296C15.8682 9.82672 15.5242 10.1703 15.1101 10.4094C14.9751 10.4872 14.8624 10.5984 14.7827 10.7323C14.703 10.8662 14.659 11.0183 14.6549 11.1741C14.6511 11.3286 14.6867 11.4816 14.7584 11.6185C14.83 11.7555 14.9354 11.872 15.0646 11.9569L15.4196 12.1936L15.5379 12.2573C16.6352 12.7778 17.561 13.601 18.2061 14.6299C18.8512 15.6589 19.1888 16.8508 19.1792 18.0652C19.1792 18.3067 19.2751 18.5382 19.4459 18.7089C19.6166 18.8797 19.8481 18.9756 20.0896 18.9756C20.331 18.9756 20.5625 18.8797 20.7333 18.7089C20.904 18.5382 20.9999 18.3067 20.9999 18.0652C21.0073 16.6683 20.6574 15.2926 19.9835 14.069C19.3095 12.8453 18.3339 11.8143 17.1492 11.0739Z" fill="black" fill-opacity="0.5"/>
</svg>
